<!-- Generated by IcoMoon.io -->
<svg version="1.1" xmlns="http://www.w3.org/2000/svg" width="26" height="32" viewBox="0 0 26 32">
<path fill="#46ebb0" d="M25.885 19.057c0 7.148-5.795 12.943-12.943 12.943s-12.943-5.795-12.943-12.943v-19.057h25.885v19.057z"></path>
<path fill="#fff" d="M12.54 22.779c0-0.927 0.752 0 1.679 0s1.679-0.927 1.679 0c0 0.927-0.752 1.679-1.679 1.679s-1.679-0.752-1.679-1.679z"></path>
<path fill="#fff" d="M7.253 22.779c0-0.927 0.752 0 1.679 0s1.679-0.927 1.679 0c0 0.927-0.752 1.679-1.679 1.679s-1.679-0.752-1.679-1.679z"></path>
<path fill="#fff" d="M8.936 19.222c0-1.705 1.382-3.086 3.086-3.086s3.086 1.382 3.086 3.086c0 1.704-1.382-0.119-3.086-0.119s-3.086 1.823-3.086 0.119z"></path>
</svg>
