<!-- Generated by IcoMoon.io -->
<svg version="1.1" xmlns="http://www.w3.org/2000/svg" width="32" height="32" viewBox="0 0 32 32">
<path fill="#f472b7" d="M23.504 24.262c-4.689 4.276-11.859 4.048-16.015-0.509s-3.724-11.718 0.965-15.994 11.859-4.048 16.015 0.509c4.156 4.557 3.724 11.718-0.965 15.994z"></path>
<path fill="#fff" d="M11.205 13.958c0.281 0.308 0.393-0.054 0.71-0.343s0.719-0.395 0.438-0.703-0.766-0.324-1.083-0.034c-0.317 0.289-0.347 0.773-0.065 1.081z"></path>
<path fill="#fff" d="M9.011 15.958c0.281 0.308 0.393-0.054 0.71-0.343s0.719-0.395 0.438-0.703c-0.281-0.309-0.766-0.323-1.083-0.034s-0.347 0.773-0.065 1.081z"></path>
<path fill="#fff" d="M10.863 16.893c0.549 0.602 1.496 0.632 2.115 0.067s0.676-1.51 0.127-2.112c-0.549-0.602-0.464 0.5-1.083 1.064s-1.708 0.379-1.159 0.981z"></path>
</svg>
