<!-- Generated by IcoMoon.io -->
<svg version="1.1" xmlns="http://www.w3.org/2000/svg" width="32" height="32" viewBox="0 0 32 32">
<path fill="#fad34f" d="M16.052 31.983c8.837 0 16-7.163 16-16s-7.163-16-16-16c-8.837 0-16 7.163-16 16s7.163 16 16 16z"></path>
<path fill="#fff" d="M20.363 20.954c0 1.146-0.929 0-2.076 0-1.146 0-2.076 1.146-2.076 0s0.929-2.076 2.076-2.076c1.147 0 2.076 0.929 2.076 2.076z"></path>
<path fill="#fff" d="M26.898 20.954c0 1.146-0.929 0-2.076 0-1.146 0-2.076 1.146-2.076 0s0.929-2.076 2.076-2.076c1.147 0 2.076 0.929 2.076 2.076z"></path>
<path fill="#fff" d="M24.818 25.352c0 2.108-1.709 3.815-3.815 3.815s-3.815-1.709-3.815-3.815c0-2.107 1.709 0.147 3.815 0.147s3.815-2.254 3.815-0.147z"></path>
</svg>
